<?xml version="1.0" encoding="UTF-8"?>
<svg version="1.1" xmlns="http://www.w3.org/2000/svg" width="626" height="368">
<path d="M0 0 C206.58 0 413.16 0 626 0 C626 121.44 626 242.88 626 368 C419.42 368 212.84 368 0 368 C0 246.56 0 125.12 0 0 Z " fill="#DAC298" transform="translate(0,0)"/>
<path d="M0 0 C9.9 0 19.8 0 30 0 C28 7 28 7 27 8 C25.33382885 8.04063832 23.66611905 8.042721 22 8 C21.814375 9.27875 21.62875 10.5575 21.4375 11.875 C21.33308594 12.59429687 21.22867187 13.31359375 21.12109375 14.0546875 C20.8315703 16.08140667 20.8315703 16.08140667 22 18 C21.34 18 20.68 18 20 18 C20 18.66 20 19.32 20 20 C20.99 20 21.98 20 23 20 C22.67 20.99 22.34 21.98 22 23 C21.34 23 20.68 23 20 23 C19.71125 24.134375 19.4225 25.26875 19.125 26.4375 C18.75375 27.613125 18.3825 28.78875 18 30 C17.34 30.33 16.68 30.66 16 31 C16 30.34 16 29.68 16 29 C14.68 29 13.36 29 12 29 C11.731875 30.134375 11.46375 31.26875 11.1875 32.4375 C10.795625 33.613125 10.40375 34.78875 10 36 C8.515 36.495 8.515 36.495 7 37 C7 38.65 7 40.3 7 42 C5.02 42.495 5.02 42.495 3 43 C2.67 42.34 2.34 41.68 2 41 C1.34 41.66 0.68 42.32 0 43 C0 28.81 0 14.62 0 0 Z " fill="#D5BB8F" transform="translate(0,0)"/>
<path d="M0 0 C0.66 1.32 1.32 2.64 2 4 C2.66 4 3.32 4 4 4 C3.67 6.31 3.34 8.62 3 11 C3.66 11 4.32 11 5 11 C5.66 9.35 6.32 7.7 7 6 C9.62386487 9.06117568 10 9.73173127 10 14 C5.38 14 0.76 14 -4 14 C-4 6.2 -4 6.2 -1 2 C-0.67 1.34 -0.34 0.68 0 0 Z " fill="#E4CDA3" transform="translate(609,354)"/>
<path d="M0 0 C-0.57584432 2.38564077 -1.22227595 4.66682784 -2 7 C-1.12085312 9.6569191 -1.12085312 9.6569191 0 12 C-1.09283577 13.03295436 -2.19970579 14.05107835 -3.3125 15.0625 C-3.92738281 15.63097656 -4.54226562 16.19945313 -5.17578125 16.78515625 C-5.77777344 17.18605469 -6.37976563 17.58695313 -7 18 C-7.99 17.67 -8.98 17.34 -10 17 C-10 16.34 -10 15.68 -10 15 C-10.66 15 -11.32 15 -12 15 C-12.33 13.68 -12.66 12.36 -13 11 C-11.88625 10.814375 -11.88625 10.814375 -10.75 10.625 C-8.19858515 10.04513299 -6.2732427 9.26291261 -4 8 C-4.33 5.69 -4.66 3.38 -5 1 C-2 0 -2 0 0 0 Z " fill="#D4BC8E" transform="translate(213,5)"/>
<path d="M0 0 C2.0625 1.5625 2.0625 1.5625 4 4 C3.75 7.75 3.75 7.75 3 11 C3.99 11.33 4.98 11.66 6 12 C4.02 12.66 2.04 13.32 0 14 C0 13.34 0 12.68 0 12 C-1.32 11.34 -2.64 10.68 -4 10 C-3.43454163 6.04179141 -2.19097652 3.3340947 0 0 Z M-9 7 C-7.68 7 -6.36 7 -5 7 C-4.67 8.32 -4.34 9.64 -4 11 C-5.65 11.33 -7.3 11.66 -9 12 C-8.67 11.01 -8.34 10.02 -8 9 C-8.33 8.34 -8.66 7.68 -9 7 Z " fill="#D3B88C" transform="translate(223,5)"/>
<path d="M0 0 C0.33 0 0.66 0 1 0 C1.33 2.64 1.66 5.28 2 8 C0.02 8.99 0.02 8.99 -2 10 C-2 11.65 -2 13.3 -2 15 C-3.32 15.33 -4.64 15.66 -6 16 C-6.33 15.34 -6.66 14.68 -7 14 C-7.66 14.66 -8.32 15.32 -9 16 C-9 12.7 -9 9.4 -9 6 C-8.01 6.495 -8.01 6.495 -7 7 C-6.34 6.01 -5.68 5.02 -5 4 C-4.67 5.65 -4.34 7.3 -4 9 C-3.67 7.35 -3.34 5.7 -3 4 C-2.01 4.33 -1.02 4.66 0 5 C0 3.35 0 1.7 0 0 Z " fill="#D1B98D" transform="translate(9,27)"/>
<path d="M0 0 C0.66 1.32 1.32 2.64 2 4 C2.99 4 3.98 4 5 4 C7 5 7 5 7.8125 7.375 C8 10 8 10 6.5625 11.8125 C6.046875 12.204375 5.53125 12.59625 5 13 C4.01 12.01 3.02 11.02 2 10 C1.01 10.66 0.02 11.32 -1 12 C-1.02698189 10.37509046 -1.04638757 8.75005367 -1.0625 7.125 C-1.07410156 6.22007813 -1.08570312 5.31515625 -1.09765625 4.3828125 C-1 2 -1 2 0 0 Z " fill="#D6BC8F" transform="translate(98,4)"/>
<path d="M0 0 C1.25541557 3.76624671 0.37061958 5.37188934 -1 9 C-1.66 9 -2.32 9 -3 9 C-3.28875 9.639375 -3.5775 10.27875 -3.875 10.9375 C-5 13 -5 13 -7 14 C-7.66 13.67 -8.32 13.34 -9 13 C-8.25 8.25 -8.25 8.25 -6 6 C-5.01 6 -4.02 6 -3 6 C-2.814375 4.7934375 -2.814375 4.7934375 -2.625 3.5625 C-2.41875 2.716875 -2.2125 1.87125 -2 1 C-1.34 0.67 -0.68 0.34 0 0 Z " fill="#D1B484" transform="translate(18,306)"/>
<path d="M0 0 C1.14991482 3.57751278 1.14991482 3.57751278 0.3125 5.9375 C0.209375 6.618125 0.10625 7.29875 0 8 C1.28725907 9.70250393 2.62131719 11.37064759 4 13 C4 13.99 4 14.98 4 16 C3.01 16 2.02 16 1 16 C1 15.34 1 14.68 1 14 C0.34 14 -0.32 14 -1 14 C-1 13.01 -1 12.02 -1 11 C-1.99 10.67 -2.98 10.34 -4 10 C-3.38461538 3.47692308 -3.38461538 3.47692308 -1.4375 1.0625 C-0.7259375 0.5365625 -0.7259375 0.5365625 0 0 Z " fill="#D1B888" transform="translate(338,126)"/>
<path d="M0 0 C0.33 0 0.66 0 1 0 C1.33 1.98 1.66 3.96 2 6 C2.33 4.35 2.66 2.7 3 1 C3.66 1.33 4.32 1.66 5 2 C4.67 5.63 4.34 9.26 4 13 C3.34 12.34 2.68 11.68 2 11 C1.01 12.485 1.01 12.485 0 14 C-0.99 14 -1.98 14 -3 14 C-3 12.68 -3 11.36 -3 10 C-2.34 9.67 -1.68 9.34 -1 9 C-0.53348793 6.87423218 -0.53348793 6.87423218 -0.375 4.4375 C-0.30023438 3.61121094 -0.22546875 2.78492187 -0.1484375 1.93359375 C-0.09945313 1.29550781 -0.05046875 0.65742187 0 0 Z " fill="#D1B88E" transform="translate(8,82)"/>
<path d="M0 0 C0.33 0 0.66 0 1 0 C1 2.64 1 5.28 1 8 C1.33 7.34 1.66 6.68 2 6 C2.99 6 3.98 6 5 6 C5 7.65 5 9.3 5 11 C3.35 11.66 1.7 12.32 0 13 C-2.22641709 8.67813153 -1.9957658 5.70725649 -1 1 C-0.67 0.67 -0.34 0.34 0 0 Z " fill="#CFB88F" transform="translate(607,280)"/>
<path d="M0 0 C0.33 0.99 0.66 1.98 1 3 C0.34 3 -0.32 3 -1 3 C-0.67 4.65 -0.34 6.3 0 8 C0.99 7.01 1.98 6.02 3 5 C3.28571429 12.42857143 3.28571429 12.42857143 1 16 C-0.96899333 14.34858624 -1.90670482 13.36784958 -2.546875 10.84375 C-2.64742187 9.68359375 -2.64742187 9.68359375 -2.75 8.5 C-2.82734375 7.7265625 -2.9046875 6.953125 -2.984375 6.15625 C-3 4 -3 4 -2 1 C-1.34 0.67 -0.68 0.34 0 0 Z " fill="#D4BB92" transform="translate(22,76)"/>
<path d="M0 0 C0.99 0.33 1.98 0.66 3 1 C3.33 2.65 3.66 4.3 4 6 C3.34 6 2.68 6 2 6 C2 8.31 2 10.62 2 13 C1.34 13 0.68 13 0 13 C0 8.71 0 4.42 0 0 Z M5 1 C5.66 1 6.32 1 7 1 C7 2.32 7 3.64 7 5 C6.01 5 5.02 5 4 5 C4.33 3.68 4.66 2.36 5 1 Z " fill="#D5BC92" transform="translate(0,171)"/>
<path d="M0 0 C0.33 0 0.66 0 1 0 C1.49230769 7.38461538 1.49230769 7.38461538 -1 10.5 C-1.66 10.995 -2.32 11.49 -3 12 C-3.66 11.67 -4.32 11.34 -5 11 C-5.33 11.99 -5.66 12.98 -6 14 C-6.39451163 10.54802327 -6.21819966 9.2982062 -4.125 6.4375 C-3.42375 5.633125 -2.7225 4.82875 -2 4 C-1.29114106 2.68861096 -0.60543548 1.36222983 0 0 Z " fill="#DECBA2" transform="translate(405,353)"/>
<path d="M0 0 C0.33 0.66 0.66 1.32 1 2 C1.66 2 2.32 2 3 2 C3.33 1.34 3.66 0.68 4 0 C4 0.99 4 1.98 4 3 C3.34 3 2.68 3 2 3 C2 5.64 2 8.28 2 11 C0.68 11 -0.64 11 -2 11 C-2.28571429 3.57142857 -2.28571429 3.57142857 0 0 Z " fill="#E2CAA1" transform="translate(541,357)"/>
<path d="M0 0 C0.66 0 1.32 0 2 0 C2 1.65 2 3.3 2 5 C2.66 5 3.32 5 4 5 C3.67 6.98 3.34 8.96 3 11 C1.68 11.33 0.36 11.66 -1 12 C-1.33 10.02 -1.66 8.04 -2 6 C-1.34 6 -0.68 6 0 6 C-0.2784375 4.7934375 -0.2784375 4.7934375 -0.5625 3.5625 C-0.706875 2.716875 -0.85125 1.87125 -1 1 C-0.67 0.67 -0.34 0.34 0 0 Z " fill="#D4B98E" transform="translate(293,83)"/>
<path d="M0 0 C2.0625 0.4375 2.0625 0.4375 4 1 C4 3.31 4 5.62 4 8 C2.35 8.33 0.7 8.66 -1 9 C-1.09765625 2.84765625 -1.09765625 2.84765625 -1 1 C-0.67 0.67 -0.34 0.34 0 0 Z " fill="#DFC89E" transform="translate(509,208)"/>
<path d="M0 0 C0.99 0.33 1.98 0.66 3 1 C3 3.31 3 5.62 3 8 C0.36 8 -2.28 8 -5 8 C-4 6 -4 6 -2 5 C-1.27840576 3.35636866 -0.60648579 1.68949614 0 0 Z " fill="#E1C9A3" transform="translate(282,360)"/>
<path d="M0 0 C1.41377341 2.63904371 2.37240135 5.07120629 3 8 C-1.75 9 -1.75 9 -4 9 C-4 8.01 -4 7.02 -4 6 C-3.34 6 -2.68 6 -2 6 C-2 4.35 -2 2.7 -2 1 C-1.34 0.67 -0.68 0.34 0 0 Z " fill="#E4CBA2" transform="translate(536,336)"/>
<path d="M0 0 C0.66 0 1.32 0 2 0 C2 0.66 2 1.32 2 2 C2.99 2 3.98 2 5 2 C5 1.34 5 0.68 5 0 C5.99 0 6.98 0 8 0 C7.67 0.99 7.34 1.98 7 3 C6.34 3 5.68 3 5 3 C5 3.66 5 4.32 5 5 C1.535 6.485 1.535 6.485 -2 8 C-1.34 5.36 -0.68 2.72 0 0 Z " fill="#CFB88F" transform="translate(449,338)"/>
<path d="M0 0 C0.99 0.33 1.98 0.66 3 1 C2.67 3.31 2.34 5.62 2 8 C2.99 8.33 3.98 8.66 5 9 C5 9.99 5 10.98 5 12 C2.525 11.01 2.525 11.01 0 10 C0 6.7 0 3.4 0 0 Z " fill="#D2B990" transform="translate(25,172)"/>
<path d="M0 0 C0.33 0.66 0.66 1.32 1 2 C1.99 2.33 2.98 2.66 4 3 C4.66 2.34 5.32 1.68 6 1 C6.33 2.65 6.66 4.3 7 6 C4.03 6 1.06 6 -2 6 C-2 4.35 -2 2.7 -2 1 C-1.34 0.67 -0.68 0.34 0 0 Z " fill="#DFC99E" transform="translate(587,362)"/>
<path d="M0 0 C0.99 0.33 1.98 0.66 3 1 C2.50510384 4.66223158 1.94323463 6.66993926 -1 9 C-1.33 9 -1.66 9 -2 9 C-2.33 6.69 -2.66 4.38 -3 2 C-2.01 1.34 -1.02 0.68 0 0 Z " fill="#D5BD91" transform="translate(194,132)"/>
<path d="M0 0 C1.45606519 4.52092968 0.27032841 7.51648796 -1 12 C-3.12508244 8.81237635 -3.5020163 6.73487777 -4 3 C-3.01 3 -2.02 3 -1 3 C-0.67 2.01 -0.34 1.02 0 0 Z " fill="#D8BB8C" transform="translate(114,108)"/>
<path d="M0 0 C1.32 0.33 2.64 0.66 4 1 C3.67 2.32 3.34 3.64 3 5 C2.01 5 1.02 5 0 5 C-0.33 5.99 -0.66 6.98 -1 8 C-1.66 7.67 -2.32 7.34 -3 7 C-2.38722388 4.03824877 -1.74627478 2.61941217 0 0 Z " fill="#D1BA90" transform="translate(310,104)"/>
<path d="M0 0 C1.875 0.25 1.875 0.25 4 1 C5.25 3.0625 5.25 3.0625 6 5 C5.01 6.485 5.01 6.485 4 8 C2.68 7.34 1.36 6.68 0 6 C0 4.02 0 2.04 0 0 Z " fill="#D6BA8C" transform="translate(49,104)"/>
<path d="M0 0 C0.556875 0.185625 1.11375 0.37125 1.6875 0.5625 C4.399133 1.07551165 6.34371039 0.6640724 9 0 C8.67 1.32 8.34 2.64 8 4 C5.36 4 2.72 4 0 4 C0 2.68 0 1.36 0 0 Z " fill="#E1CAA3" transform="translate(459,364)"/>
<path d="M0 0 C0.33 0 0.66 0 1 0 C1.22134176 2.12368444 1.42670007 4.24904024 1.625 6.375 C1.74101563 7.55835938 1.85703125 8.74171875 1.9765625 9.9609375 C1.98429688 10.96382813 1.99203125 11.96671875 2 13 C1.34 13.66 0.68 14.32 0 15 C-0.75612577 9.76528314 -1.2063366 5.22745859 0 0 Z M2 7 C2.66 7 3.32 7 4 7 C4 9.31 4 11.62 4 14 C3.67 14 3.34 14 3 14 C2.67 11.69 2.34 9.38 2 7 Z " fill="#E1CA9F" transform="translate(570,320)"/>
<path d="M0 0 C0.33 1.32 0.66 2.64 1 4 C-3.75 7 -3.75 7 -6 7 C-5.8125 4.625 -5.8125 4.625 -5 2 C-2.4375 0.6875 -2.4375 0.6875 0 0 Z " fill="#D3BE92" transform="translate(403,216)"/>
<path d="M0 0 C0.33 0 0.66 0 1 0 C1.33 1.65 1.66 3.3 2 5 C3.32 3.68 4.64 2.36 6 1 C5.67 2.98 5.34 4.96 5 7 C3.35 7.33 1.7 7.66 0 8 C-0.38063221 5.6739143 -0.71269945 3.33944736 -1 1 C-0.67 0.67 -0.34 0.34 0 0 Z " fill="#D4B98F" transform="translate(224,23)"/>
<path d="M0 0 C0.33 0 0.66 0 1 0 C1.9765625 6.0546875 1.9765625 6.0546875 2 8 C1.34 8.66 0.68 9.32 0 10 C-0.99 10 -1.98 10 -3 10 C-3 8.02 -3 6.04 -3 4 C-2.01 4.33 -1.02 4.66 0 5 C0 3.35 0 1.7 0 0 Z " fill="#CDB286" transform="translate(9,27)"/>
<path d="M0 0 C1.85776765 3.13498292 2.20140476 5.37471432 2 9 C0.68 9.33 -0.64 9.66 -2 10 C-2.25 3.375 -2.25 3.375 0 0 Z " fill="#E1C89F" transform="translate(624,291)"/>
<path d="M0 0 C0.99 0 1.98 0 3 0 C3.66 0.99 4.32 1.98 5 3 C2.9927092 6.0109362 2.16115776 6.63016497 -1 8 C-0.67 5.36 -0.34 2.72 0 0 Z " fill="#E1CA9E" transform="translate(532,56)"/>
<path d="M0 0 C0.66 0 1.32 0 2 0 C2 0.66 2 1.32 2 2 C3.98 1.34 5.96 0.68 8 0 C7.67 1.98 7.34 3.96 7 6 C6.67 5.34 6.34 4.68 6 4 C4.35 4 2.7 4 1 4 C0.67 2.68 0.34 1.36 0 0 Z " fill="#D2B78A" transform="translate(109,10)"/>
<path d="M0 0 C4.455 0.99 4.455 0.99 9 2 C9 2.99 9 3.98 9 5 C6.36 5 3.72 5 1 5 C0.67 3.35 0.34 1.7 0 0 Z " fill="#D1B789" transform="translate(456,43)"/>
<path d="M0 0 C0.66 0.33 1.32 0.66 2 1 C2 3.31 2 5.62 2 8 C0.35 7.67 -1.3 7.34 -3 7 C-2.690625 6.401875 -2.38125 5.80375 -2.0625 5.1875 C-0.89790296 2.91043228 -0.89790296 2.91043228 0 0 Z " fill="#D8BC8D" transform="translate(613,312)"/>
<path d="M0 0 C0.66 0.99 1.32 1.98 2 3 C1.125 6.6875 1.125 6.6875 0 10 C-0.66 10 -1.32 10 -2 10 C-2.1953125 3.9453125 -2.1953125 3.9453125 -2 2 C-1.34 1.34 -0.68 0.68 0 0 Z " fill="#D0B989" transform="translate(456,245)"/>
<path d="M0 0 C1.27964851 3.83894552 0.61871725 5.55632643 -0.9375 9.1875 C-2 11 -2 11 -4 12 C-2.7027027 2.7027027 -2.7027027 2.7027027 0 0 Z " fill="#D0B990" transform="translate(390,241)"/>
<path d="M0 0 C3 4 3 4 2.85546875 6.796875 C2.63503906 7.77140625 2.41460937 8.7459375 2.1875 9.75 C1.97480469 10.73484375 1.76210938 11.7196875 1.54296875 12.734375 C1.36378906 13.48203125 1.18460937 14.2296875 1 15 C0.67 15 0.34 15 0 15 C0 10.05 0 5.1 0 0 Z " fill="#E2CBA0" transform="translate(0,50)"/>
<path d="M0 0 C1.65 1.65 3.3 3.3 5 5 C4.34 6.65 3.68 8.3 3 10 C2.34 10 1.68 10 1 10 C1.020625 9.0925 1.04125 8.185 1.0625 7.25 C1.0110245 4.57327412 0.7784983 2.53011948 0 0 Z " fill="#E2CA9F" transform="translate(611,43)"/>
<path d="M0 0 C0.33 0.66 0.66 1.32 1 2 C1.66 2 2.32 2 3 2 C3.33 1.34 3.66 0.68 4 0 C4 1.65 4 3.3 4 5 C2.68 5 1.36 5 0 5 C-0.99 5.33 -1.98 5.66 -3 6 C-3 4.68 -3 3.36 -3 2 C-2.01 2 -1.02 2 0 2 C0 1.34 0 0.68 0 0 Z " fill="#D3B788" transform="translate(405,41)"/>
<path d="M0 0 C0.66 0 1.32 0 2 0 C2 1.98 2 3.96 2 6 C0.35 6 -1.3 6 -3 6 C-3 5.01 -3 4.02 -3 3 C-2.34 3 -1.68 3 -1 3 C-0.67 2.01 -0.34 1.02 0 0 Z " fill="#E1C89F" transform="translate(624,362)"/>
<path d="M0 0 C0.99 0 1.98 0 3 0 C3 0.66 3 1.32 3 2 C3.66 2.33 4.32 2.66 5 3 C4.34 4.65 3.68 6.3 3 8 C2.34 7.34 1.68 6.68 1 6 C1 5.01 1 4.02 1 3 C0.34 3 -0.32 3 -1 3 C-0.67 2.01 -0.34 1.02 0 0 Z " fill="#CFB78C" transform="translate(30,146)"/>
<path d="M0 0 C0.66 0 1.32 0 2 0 C2.33 0.99 2.66 1.98 3 3 C3.66 2.34 4.32 1.68 5 1 C5.66 1.33 6.32 1.66 7 2 C7 2.99 7 3.98 7 5 C4.69 5 2.38 5 0 5 C0 3.35 0 1.7 0 0 Z " fill="#E5CEA3" transform="translate(529,363)"/>
<path d="M0 0 C1.25541557 3.76624671 0.37061958 5.37188934 -1 9 C-1.66 9 -2.32 9 -3 9 C-3.08226668 5.95613276 -2.97608217 3.92824652 -2 1 C-1.34 0.67 -0.68 0.34 0 0 Z " fill="#D6BB8C" transform="translate(18,306)"/>
<path d="M0 0 C0.33 0 0.66 0 1 0 C1 2.64 1 5.28 1 8 C-0.65 8.66 -2.3 9.32 -4 10 C-3.6875 8.0625 -3.6875 8.0625 -3 6 C-2.01 5.67 -1.02 5.34 0 5 C0 3.35 0 1.7 0 0 Z " fill="#D0B890" transform="translate(63,204)"/>
<path d="M0 0 C0.99 0.99 1.98 1.98 3 3 C2.25 4.9375 2.25 4.9375 1 7 C-1.125 7.75 -1.125 7.75 -3 8 C-3 7.01 -3 6.02 -3 5 C-2.34 5 -1.68 5 -1 5 C-0.67 3.35 -0.34 1.7 0 0 Z " fill="#D1B88E" transform="translate(402,91)"/>
<path d="M0 0 C2.31 0.33 4.62 0.66 7 1 C6.67 1.99 6.34 2.98 6 4 C3.9375 4.6875 3.9375 4.6875 2 5 C2 4.34 2 3.68 2 3 C1.34 3 0.68 3 0 3 C0 2.01 0 1.02 0 0 Z " fill="#CFB589" transform="translate(16,19)"/>
<path d="M0 0 C0.33 0.66 0.66 1.32 1 2 C1.99 2 2.98 2 4 2 C3.67 3.98 3.34 5.96 3 8 C2.34 8 1.68 8 1 8 C0.67 5.36 0.34 2.72 0 0 Z " fill="#E0CAA3" transform="translate(419,360)"/>
<path d="M0 0 C-0.33 0.99 -0.66 1.98 -1 3 C-1.99 3 -2.98 3 -4 3 C-4 3.66 -4 4.32 -4 5 C-5.32 4.67 -6.64 4.34 -8 4 C-5.52914451 0.29371676 -4.37054922 0 0 0 Z " fill="#D4B788" transform="translate(111,122)"/>
<path d="M0 0 C0.99 0 1.98 0 3 0 C3 0.99 3 1.98 3 3 C3.66 3.33 4.32 3.66 5 4 C0.25 5.125 0.25 5.125 -2 4 C-2 3.34 -2 2.68 -2 2 C-1.34 2 -0.68 2 0 2 C0 1.34 0 0.68 0 0 Z " fill="#CFB88F" transform="translate(614,91)"/>
<path d="M0 0 C0.99 0.33 1.98 0.66 3 1 C3 1.66 3 2.32 3 3 C2.34 3 1.68 3 1 3 C1.495 3.45375 1.99 3.9075 2.5 4.375 C4 6 4 6 4 8 C2.68 7.67 1.36 7.34 0 7 C-0.38133299 5.0085944 -0.71325582 3.00720923 -1 1 C-0.67 0.67 -0.34 0.34 0 0 Z " fill="#CCB488" transform="translate(154,88)"/>
<path d="M0 0 C0 1.32 0 2.64 0 4 C-1.32 4 -2.64 4 -4 4 C-4 3.34 -4 2.68 -4 2 C-4.66 2 -5.32 2 -6 2 C-6 1.34 -6 0.68 -6 0 C-2.25 -1.125 -2.25 -1.125 0 0 Z " fill="#CBAD84" transform="translate(290,9)"/>
<path d="M0 0 C-0.56371414 3.26954202 -1.49962266 4.82575883 -4 7 C-4.33 5.02 -4.66 3.04 -5 1 C-2 0 -2 0 0 0 Z " fill="#CCB489" transform="translate(213,5)"/>
<path d="M0 0 C0.33 0.99 0.66 1.98 1 3 C2.32 2.34 3.64 1.68 5 1 C4.67 2.65 4.34 4.3 4 6 C2.68 5.67 1.36 5.34 0 5 C-0.5625 3.0625 -0.5625 3.0625 -1 1 C-0.67 0.67 -0.34 0.34 0 0 Z " fill="#D8BD8D" transform="translate(602,345)"/>
<path d="M0 0 C1.65 0 3.3 0 5 0 C5 2.64 5 5.28 5 8 C2.59078295 5.59078295 1.46187844 3.05665491 0 0 Z " fill="#E5CCA2" transform="translate(463,340)"/>
<path d="M0 0 C0.66 0 1.32 0 2 0 C2.25 2.8125 2.25 2.8125 2 6 C0 7.875 0 7.875 -2 9 C-2 7.68 -2 6.36 -2 5 C-1.34 5 -0.68 5 0 5 C0 3.35 0 1.7 0 0 Z " fill="#D3BB8F" transform="translate(509,316)"/>
<path d="M0 0 C0.66 0.33 1.32 0.66 2 1 C0.125 5.75 0.125 5.75 -1 8 C-1.66 8 -2.32 8 -3 8 C-1.125 1.125 -1.125 1.125 0 0 Z " fill="#CEB78E" transform="translate(44,278)"/>
<path d="M0 0 C1.32 0.33 2.64 0.66 4 1 C3.67 1.66 3.34 2.32 3 3 C2.34 3 1.68 3 1 3 C0.34 4.65 -0.32 6.3 -1 8 C-1.93065133 5.39417629 -2.14917407 4.35801776 -1.0625 1.75 C-0.711875 1.1725 -0.36125 0.595 0 0 Z " fill="#D1BA8F" transform="translate(313,208)"/>
<path d="M0 0 C2.97 0.495 2.97 0.495 6 1 C5.67 2.32 5.34 3.64 5 5 C3.35 4.67 1.7 4.34 0 4 C0 2.68 0 1.36 0 0 Z " fill="#D0B283" transform="translate(308,148)"/>
<path d="M0 0 C0.66 0.33 1.32 0.66 2 1 C1.67 2.98 1.34 4.96 1 7 C0.01 7.33 -0.98 7.66 -2 8 C-1.47731534 5.23723823 -0.89130413 2.6739124 0 0 Z " fill="#D2BC8F" transform="translate(251,354)"/>
<path d="M0 0 C0.66 0 1.32 0 2 0 C2.33 1.98 2.66 3.96 3 6 C1.68 6 0.36 6 -1 6 C-0.67 4.02 -0.34 2.04 0 0 Z " fill="#D1BA90" transform="translate(93,246)"/>
<path d="M0 0 C0.66 0 1.32 0 2 0 C1.34 2.31 0.68 4.62 0 7 C-0.99 7 -1.98 7 -3 7 C-1.125 1.125 -1.125 1.125 0 0 Z " fill="#D2BB91" transform="translate(427,233)"/>
<path d="M0 0 C2 3 2 3 1.8125 5 C0.90059285 7.24469451 -0.18533754 8.42203265 -2 10 C-1.33333333 6.66666667 -0.66666667 3.33333333 0 0 Z " fill="#DFC89E" transform="translate(587,22)"/>
<path d="M0 0 C1.32 0.33 2.64 0.66 4 1 C4 2.32 4 3.64 4 5 C2.68 5 1.36 5 0 5 C0 3.35 0 1.7 0 0 Z " fill="#E0CAA3" transform="translate(134,363)"/>
<path d="M0 0 C1.32 0.33 2.64 0.66 4 1 C3.67 1.99 3.34 2.98 3 4 C1.35 3.67 -0.3 3.34 -2 3 C-1.34 2.01 -0.68 1.02 0 0 Z " fill="#E1C9A0" transform="translate(326,335)"/>
<path d="M0 0 C2 1.375 2 1.375 4 3 C4 3.66 4 4.32 4 5 C3.01 5.33 2.02 5.66 1 6 C0.34 5.67 -0.32 5.34 -1 5 C-0.67 3.35 -0.34 1.7 0 0 Z " fill="#CBB48A" transform="translate(109,254)"/>
<path d="M0 0 C0.33 0.66 0.66 1.32 1 2 C1.99 1.67 2.98 1.34 4 1 C3.6875 2.875 3.6875 2.875 3 5 C2.01 5.66 1.02 6.32 0 7 C0 4.69 0 2.38 0 0 Z " fill="#CDB68D" transform="translate(72,250)"/>
<path d="M0 0 C2.0625 2.3125 2.0625 2.3125 4 5 C3.67 5.99 3.34 6.98 3 8 C2.01 7.67 1.02 7.34 0 7 C0 4.69 0 2.38 0 0 Z " fill="#D2B78A" transform="translate(11,104)"/>
<path d="M0 0 C0.66 0.33 1.32 0.66 2 1 C0.515 4.96 0.515 4.96 -1 9 C-1.33 9 -1.66 9 -2 9 C-2 6.69 -2 4.38 -2 2 C-1.34 2 -0.68 2 0 2 C0 1.34 0 0.68 0 0 Z " fill="#E2C99E" transform="translate(535,92)"/>
<path d="M0 0 C2.475 0.99 2.475 0.99 5 2 C5 3.65 5 5.3 5 7 C3.29115995 5.37660195 1.62553283 3.70680947 0 2 C0 1.34 0 0.68 0 0 Z " fill="#D5BD8E" transform="translate(315,46)"/>
<path d="M0 0 C2.31 0.33 4.62 0.66 7 1 C6.67 1.66 6.34 2.32 6 3 C4.68 3 3.36 3 2 3 C1.67 3.66 1.34 4.32 1 5 C0.67 3.35 0.34 1.7 0 0 Z " fill="#D3B790" transform="translate(282,6)"/>
</svg>
